<?xml version="1.0" standalone="no"?><!DOCTYPE svg PUBLIC "-//W3C//DTD SVG 1.1//EN" "http://www.w3.org/Graphics/SVG/1.1/DTD/svg11.dtd"><svg t="1770014024433" class="icon" viewBox="0 0 1560 1024" version="1.1" xmlns="http://www.w3.org/2000/svg" p-id="4685" width="48.75" height="32" xmlns:xlink="http://www.w3.org/1999/xlink"><path d="M780.190476 1024c430.884571 0 780.190476-76.409905 780.190476-170.666667S1211.075048 682.666667 780.190476 682.666667c-270.384762 0-508.65981 30.086095-648.643047 75.800381C48.457143 785.590857 0 818.224762 0 853.333333c0 94.256762 349.305905 170.666667 780.190476 170.666667z" fill="#F5F5F5" p-id="4686"></path><path d="M514.267429 0l-2.816 0.073143c-20.626286 1.03619-39.777524 13.470476-53.223619 33.54819l-1.182477 1.840762L207.238095 318.695619V560.761905h1145.904762V318.695619L1103.335619 35.474286l0.609524 0.938666C1089.865143 13.738667 1068.751238 0 1046.113524 0H514.267429z" fill="#D9D9D9" p-id="4687"></path><path d="M514.267429 24.380952h531.846095c13.482667 0 27.196952 8.923429 37.12 24.905143l1.219047 1.621334L1328.761905 327.92381V536.380952H231.619048V327.887238l244.309333-276.967619 1.219048-1.633524C487.070476 33.316571 500.784762 24.380952 514.267429 24.380952z" fill="#FFFFFF" p-id="4688"></path><path d="M231.619048 771.181714V341.333333h259.900952c21.699048 0 41.045333 24.551619 42.057143 56.600381l0.036571 3.120762c0 43.910095 27.477333 80.896 63.792762 82.858667l2.633143 0.073143h359.984762c36.547048 0 65.28-35.961905 66.681905-79.835429l0.060952-3.535238c0-32.26819 18.736762-58.026667 40.460191-59.245714l1.962666-0.036572H1328.761905v430.006857c0 44.678095-26.489905 80.554667-57.782857 81.944381l-2.206477 0.048762h-977.432381c-31.305143 0-58.526476-34.620952-59.684571-79.079619L231.619048 771.169524z" fill="#FFFFFF" p-id="4689"></path><path d="M231.619048 771.181714V341.333333h259.900952c21.699048 0 41.045333 24.551619 42.057143 56.600381l0.036571 3.120762c0 43.910095 27.477333 80.896 63.792762 82.858667l2.633143 0.073143h359.984762c36.547048 0 65.28-35.961905 66.681905-79.835429l0.060952-3.535238c0-32.26819 18.736762-58.026667 40.460191-59.245714l1.962666-0.036572H1328.761905v430.006857c0 44.678095-26.489905 80.554667-57.782857 81.944381l-2.206477 0.048762h-977.432381c-31.305143 0-58.526476-34.620952-59.684571-79.079619L231.619048 771.169524zM207.238095 316.952381v454.387809l0.048762 3.376762c1.462857 56.649143 37.912381 102.997333 84.053333 102.997334h977.700572l2.742857-0.060953c46.153143-2.048 81.359238-49.737143 81.359238-106.300952V316.952381H1068.860952l-2.645333 0.073143c-35.693714 1.962667-62.561524 37.790476-63.792762 80.530286l-0.085333 6.009904c-1.024 31.683048-20.48 56.039619-42.325334 56.039619H600.380952l-1.974857-0.048762c-20.931048-1.133714-39.216762-24.905143-40.350476-55.515428l-0.097524-6.692572C556.55619 353.158095 528.042667 316.952381 491.53219 316.952381H207.238095z" fill="#D9D9D9" p-id="4690"></path></svg>