<?xml version="1.0" standalone="no"?><!DOCTYPE svg PUBLIC "-//W3C//DTD SVG 1.1//EN" "http://www.w3.org/Graphics/SVG/1.1/DTD/svg11.dtd"><svg t="1767775989614" class="icon" viewBox="0 0 1024 1024" version="1.1" xmlns="http://www.w3.org/2000/svg" p-id="13531" width="16" height="16" xmlns:xlink="http://www.w3.org/1999/xlink"><path d="M511.563 65.144c-246.87 0-446.998 200.128-446.998 446.998S264.693 959.14 511.563 959.14 958.56 759.012 958.56 512.141 758.433 65.144 511.563 65.144z m178.524 582.517c11.716 11.716 11.716 30.71 0 42.426-5.857 5.858-13.535 8.787-21.213 8.787s-15.355-2.929-21.213-8.787L513.535 555.961 379.41 690.087c-5.858 5.858-13.536 8.787-21.213 8.787s-15.355-2.929-21.213-8.787c-11.715-11.716-11.715-30.71 0-42.426L471.11 513.535 336.983 379.41c-11.715-11.716-11.715-30.711 0-42.427 11.716-11.716 30.711-11.716 42.427 0l134.126 134.126 134.126-134.126c11.715-11.716 30.711-11.716 42.426 0 11.716 11.716 11.716 30.711 0 42.427L555.961 513.535l134.126 134.126z" fill="#d81e06" p-id="13532"></path></svg>