<?xml version="1.0" standalone="no"?><!DOCTYPE svg PUBLIC "-//W3C//DTD SVG 1.1//EN" "http://www.w3.org/Graphics/SVG/1.1/DTD/svg11.dtd"><svg t="1768195567994" class="icon" viewBox="0 0 1024 1024" version="1.1" xmlns="http://www.w3.org/2000/svg" p-id="3498" width="16" height="16" xmlns:xlink="http://www.w3.org/1999/xlink"><path d="M972.288 910.976L822.272 761.088c26.24-32.256 47.616-67.968 64-106.496 23.168-54.656 34.816-112.768 34.816-172.672 0-59.904-11.776-117.888-34.816-172.672-22.4-52.864-54.272-100.224-94.976-140.928-40.832-40.704-88.32-72.704-141.056-95.104-54.784-23.04-112.768-34.816-172.672-34.816S359.68 50.176 304.896 73.216c-52.864 22.4-100.224 54.272-140.928 94.976-40.704 40.704-72.704 88.192-94.976 140.928-23.168 54.656-34.816 112.768-34.816 172.672 0 59.904 11.776 117.888 34.816 172.672 22.4 52.864 54.272 100.224 94.976 140.928 40.704 40.704 88.192 72.704 140.928 94.976 54.656 23.168 112.768 34.816 172.672 34.816s117.888-11.776 172.672-34.816c41.088-17.408 78.976-40.576 112.896-69.248l149.376 149.376c16.512 16.512 43.264 16.512 59.776 0 16.512-16.256 16.512-43.008 0-59.52zM477.568 840.96C279.552 840.96 118.528 679.936 118.528 481.92S279.552 122.88 477.568 122.88s359.04 161.024 359.04 359.04S675.584 840.96 477.568 840.96z" p-id="3499" fill="#ffffff"></path></svg>