<?xml version="1.0" standalone="no"?><!DOCTYPE svg PUBLIC "-//W3C//DTD SVG 1.1//EN" "http://www.w3.org/Graphics/SVG/1.1/DTD/svg11.dtd"><svg t="1768467385728" class="icon" viewBox="0 0 1024 1024" version="1.1" xmlns="http://www.w3.org/2000/svg" p-id="7853" width="16" height="16" xmlns:xlink="http://www.w3.org/1999/xlink"><path d="M240.26832592 420.2496c6.5536 0 13.1072-2.18453333 19.6608-8.73813333l225.00693333-225.00693334v559.24053334c-2.18453333 15.29173333 10.92266667 28.39893333 26.2144 28.39893333 15.29173333 0 26.2144-13.1072 26.2144-28.39893333V186.50453333l225.00693334 225.00693334c10.92266667 10.92266667 28.39893333 10.92266667 39.3216 0s10.92266667-28.39893333 0-39.3216L511.15045925 83.83146667 220.60752592 374.3744c-10.92266667 10.92266667-10.92266667 28.39893333 0 39.3216 4.36906667 4.36906667 13.1072 6.5536 19.6608 6.5536zM915.28912592 883.37066667h-808.27733333c-15.29173333 0-28.39893333 13.1072-28.39893334 28.39893333 0 15.29173333 13.1072 28.39893333 28.39893334 28.39893333h808.27733333c15.29173333 0 28.39893333-10.92266667 28.39893333-28.39893333 0-15.29173333-13.1072-28.39893333-28.39893333-28.39893333z" p-id="7854" fill="currentColor"></path></svg>