<?xml version="1.0" standalone="no"?><!DOCTYPE svg PUBLIC "-//W3C//DTD SVG 1.1//EN" "http://www.w3.org/Graphics/SVG/1.1/DTD/svg11.dtd"><svg t="1767775982492" class="icon" viewBox="0 0 1024 1024" version="1.1" xmlns="http://www.w3.org/2000/svg" p-id="13211" width="16" height="16" xmlns:xlink="http://www.w3.org/1999/xlink"><path d="M510.438 64.129c-246.87 0-446.998 200.128-446.998 446.998s200.128 446.998 446.998 446.998 446.998-200.128 446.998-446.998S757.308 64.129 510.438 64.129zM722.674 403.3L455.859 662.028a29.918 29.918 0 0 1-20.885 8.463 29.91 29.91 0 0 1-20.57-8.164L298.515 553.154c-12.06-11.361-12.626-30.348-1.265-42.408 11.361-12.059 30.348-12.625 42.408-1.265l95.018 89.512 246.229-238.768c11.896-11.533 30.888-11.242 42.422 0.653s11.241 30.888-0.653 42.422z" fill="#68BB8D" p-id="13212"></path></svg>