<?xml version="1.0" standalone="no"?><!DOCTYPE svg PUBLIC "-//W3C//DTD SVG 1.1//EN" "http://www.w3.org/Graphics/SVG/1.1/DTD/svg11.dtd"><svg t="1769137101312" class="icon" viewBox="0 0 1024 1024" version="1.1" xmlns="http://www.w3.org/2000/svg" p-id="30853" width="16" height="16" xmlns:xlink="http://www.w3.org/1999/xlink"><path d="M987.206236 532.940738c-15.942944-18.621359-12.307953-26.592831 1.020348-42.982178 69.25615-84.752691 31.758345-201.773902-74.612979-229.578396C887.020774 253.365269 875.605626 245.585112 884.916306 223.201219c2.678415-107.455444-100.950723-179.708867-201.773902-142.14729C659.483075 89.854433 651.0652 88.005052 636.844094 67.215453c-61.284677-89.535575-188.573144-89.599346-249.283875 0C373.020254 88.578998 363.964661 89.408031 341.070594 81.181472c-103.37405-37.242718-208.087308 36.349913-201.072412 142.211062C141.783791 249.985365 133.302145 254.194302 110.599392 260.316393c-106.052465 28.505984-144.761933 147.376576-74.421663 229.769712C51.610499 508.197289 49.761117 516.104989 35.731327 533.387141c-70.276498 86.15567-30.100279 202.539163 79.459634 230.917604 20.215653 5.229286 26.592831 9.310679 25.253624 31.630801-6.696037 112.238327 95.976524 184.49175 205.345121 144.825705 20.47074-7.461298 27.485636-5.484373 39.602273 12.371725 63.325374 93.999599 190.613841 93.616968 253.875443-1.020348 12.56304-18.940218 19.960566-18.430043 39.729817-11.223833 108.156933 40.622622 214.27317-35.90351 204.643632-147.376576-1.849382-20.47074 3.507448-23.914416 22.638981-28.569756C1018.900809 737.137967 1060.543779 618.394919 987.206236 532.940738L987.206236 532.940738 987.206236 532.940738zM214.866247 717.815119 156.068669 549.011226c-5.101742-14.667509 0.191315-25.062308 15.879172-30.86554 8.928049-1.147892 16.899521 0.127544 23.723101 3.890078l145.272107 92.022674 1.275436-0.446402L303.190158 501.437481c-5.165514-14.667509 0.127544-24.934765 15.815401-30.929312C334.310785 466.426775 344.960672 471.592289 350.955219 486.004711l58.733806 168.867665c4.017622 14.221106-1.530523 23.531786-16.580662 28.442212-8.354103 2.805958-16.006716 2.232012-22.894068-1.530523L225.197275 591.036827 223.985611 591.228142l38.581925 111.090435c4.017622 14.221106-1.530523 23.659329-16.644434 28.442212C230.04393 736.053847 219.649131 731.781138 214.866247 717.815119L214.866247 717.815119 214.866247 717.815119zM436.919574 644.796435l-56.756881-163.128205c-5.675688-16.198031-0.637718-27.230549 15.050139-33.225096L475.692814 422.488021c13.64716-3.571219 23.468014 0.573946 29.462561 12.307953C508.280192 449.272167 503.114678 458.646618 489.722605 462.983099L433.220811 481.285599l14.858824 42.790862L500.882666 506.985625C515.677718 503.92458 526.072518 508.324833 532.003293 520.122611 534.873023 533.833543 529.324879 543.335538 515.358859 548.692367L462.555828 565.783203 478.243685 610.806078l59.116437-19.067761C551.900088 588.039553 561.720941 592.120947 566.886455 604.110041 569.9475 618.586235 564.845758 628.024457 551.517457 632.297167l-83.030853 26.656603C453.117605 663.098935 442.595262 658.379823 436.919574 644.796435L436.919574 644.796435 436.919574 644.796435zM615.735636 588.294641l-97.825906-148.58824C515.231316 437.15553 513.637022 433.839397 513.126847 429.694232c-3.188589-11.86155 2.040697-20.853371 15.815401-26.975462 13.392073-4.272709 24.743449 0.191315 33.990357 13.455845l69.893867 116.447264 1.339207-0.446402-3.826307-142.976323c0.510174-12.116638 6.887352-20.662056 19.259077-25.508711 11.989094-3.061045 22.447665 0.063772 31.056855 9.246908l86.474529 116.255949 1.339207-0.446402-15.815401-133.856959c-3.252361-14.476193 2.678415-24.488362 17.345923-30.16405 14.029791-2.742186 23.786873 1.339207 29.526333 12.307953 1.339207 3.890078 2.104469 7.52507 2.487099 10.841202l16.070488 174.989755c-1.147892 15.815401-9.119364 26.146428-24.297047 30.86554-16.835749 5.484373-29.908963 2.487099-39.47473-9.119364l-77.610252-102.353702 2.104469 126.842064c-1.275436 14.986368-9.310679 24.998536-24.552134 29.845192C636.971638 604.556444 623.962195 601.112768 615.735636 588.294641L615.735636 588.294641 615.735636 588.294641z" fill="#1afa29" p-id="30854"></path></svg>