<?xml version="1.0" standalone="no"?><!DOCTYPE svg PUBLIC "-//W3C//DTD SVG 1.1//EN" "http://www.w3.org/Graphics/SVG/1.1/DTD/svg11.dtd"><svg t="1769136582449" class="icon" viewBox="0 0 1024 1024" version="1.1" xmlns="http://www.w3.org/2000/svg" p-id="26420" width="16" height="16" xmlns:xlink="http://www.w3.org/1999/xlink"><path d="M905.481481 56.50963H118.518519c-31.478519 0-56.888889 25.41037-56.888889 56.888889s25.41037 56.888889 56.888889 56.888888h51.958518v501.380741c0 16.687407 7.205926 32.616296 20.100741 43.614815l284.823703 238.933333c10.619259 9.102222 23.514074 13.274074 36.408889 13.274074 13.274074 0 26.168889-4.171852 36.788149-13.274074l284.444444-238.933333c12.894815-10.998519 20.48-26.927407 20.48-43.614815V170.287407h51.958518c31.478519 0 56.888889-25.41037 56.888889-56.888888s-25.41037-56.888889-56.888889-56.888889z m-234.761481 399.739259l-44.752593 43.614815 10.61926 61.819259c3.034074 18.204444-4.171852 36.02963-18.962963 46.648889-14.411852 10.619259-33.754074 12.136296-50.062223 3.413333l-55.371851-29.202963-55.751111 29.202963c-14.829037 8.229926-33.564444 7.850667-50.062223-3.413333-14.791111-10.619259-21.997037-28.444444-18.962963-46.648889l10.61926-61.819259-44.752593-43.614815c-13.274074-12.894815-17.825185-31.478519-12.136296-48.924445 5.688889-17.445926 20.100741-29.961481 38.305185-32.237037l62.198518-9.102222 27.685926-56.13037c7.964444-16.308148 24.272593-26.548148 42.856297-26.548148 18.204444 0 34.512593 10.24 42.477037 26.548148l27.685926 56.13037 62.198518 9.102222c18.204444 2.275556 32.616296 14.791111 38.305185 32.237037 5.688889 17.445926 1.137778 36.02963-12.136296 48.924445z" p-id="26421" fill="#1296db"></path></svg>