<?xml version="1.0" standalone="no"?><!DOCTYPE svg PUBLIC "-//W3C//DTD SVG 1.1//EN" "http://www.w3.org/Graphics/SVG/1.1/DTD/svg11.dtd"><svg t="1769136099831" class="icon" viewBox="0 0 1061 1024" version="1.1" xmlns="http://www.w3.org/2000/svg" p-id="7975" width="16.578125" height="16" xmlns:xlink="http://www.w3.org/1999/xlink"><path d="M0 0h1061.925926v910.222222H0V0z m75.851852 834.37037h910.222222V75.851852H75.851852v758.518518zM292.788148 274.128593l318.577778 365.37837L720.592593 455.111111l227.555555 303.407408H113.777778zM823.978667 365.605926a107.975111 107.975111 0 0 1-106.192593-109.605926 106.192593 106.192593 0 1 1 212.385185 0 107.975111 107.975111 0 0 1-106.192592 109.605926zM37.925926 948.148148h189.62963a37.925926 37.925926 0 0 1 0 75.851852H37.925926a38.494815 38.494815 0 0 1-37.925926-37.925926 39.822222 39.822222 0 0 1 37.925926-37.925926z m417.185185 0h151.703704a37.925926 37.925926 0 0 1 0 75.851852h-151.703704a38.494815 38.494815 0 0 1-37.925926-37.925926 39.822222 39.822222 0 0 1 37.925926-37.925926z m379.259259 0h189.62963a37.925926 37.925926 0 0 1 0 75.851852h-189.62963a38.494815 38.494815 0 0 1-37.925926-37.925926 39.822222 39.822222 0 0 1 37.925926-37.925926z" fill="#1296db" p-id="7976"></path></svg>