<?xml version="1.0" standalone="no"?><!DOCTYPE svg PUBLIC "-//W3C//DTD SVG 1.1//EN" "http://www.w3.org/Graphics/SVG/1.1/DTD/svg11.dtd"><svg t="1769136776828" class="icon" viewBox="0 0 1024 1024" version="1.1" xmlns="http://www.w3.org/2000/svg" p-id="28413" width="16" height="16" xmlns:xlink="http://www.w3.org/1999/xlink"><path d="M613.936 408.252c-14.238-14.241-37.27-14.241-51.51 0L408.017 562.661c-14.181 14.179-14.181 37.211 0 51.387 14.236 14.242 37.269 14.242 51.509 0l154.41-154.408c14.179-14.18 14.179-37.211 0-51.387zM897.758 63.546H127.717c-35.441 0-64.17 28.73-64.17 64.17v770.042c0 35.441 28.729 64.173 64.17 64.173h770.04c35.442 0 64.171-28.732 64.171-64.173V127.717c0-35.441-28.729-64.17-64.17-64.17z m0 834.212H127.717V127.717h770.04v770.04z m-541.19-77.85c14.175 14.177 37.269 14.177 51.449 0l154.407-154.411c14.242-14.176 14.242-37.207 0-51.449l-25.69-25.752-154.412 154.406-102.96-102.958 154.407-154.413-25.751-25.752c-14.181-14.18-37.274-14.18-51.449 0L202.155 613.986c-14.175 14.241-14.175 37.335 0 51.51l154.413 154.413z m128.65-385.965l154.414-154.407L742.59 382.494 588.182 536.97l25.753 25.751c14.179 14.181 37.273 14.181 51.448 0l154.412-154.408c14.176-14.302 14.176-37.396 0-51.571l-154.41-154.413c-14.176-14.175-37.27-14.175-51.45 0L459.528 356.743c-14.241 14.236-14.241 37.269 0 51.51l25.691 25.69z" fill="#7A3ACF" p-id="28414"></path></svg>