<?xml version="1.0" standalone="no"?><!DOCTYPE svg PUBLIC "-//W3C//DTD SVG 1.1//EN" "http://www.w3.org/Graphics/SVG/1.1/DTD/svg11.dtd"><svg t="1769136975612" class="icon" viewBox="0 0 1024 1024" version="1.1" xmlns="http://www.w3.org/2000/svg" p-id="29481" width="16" height="16" xmlns:xlink="http://www.w3.org/1999/xlink"><path d="M638.72 91.776h-256a64 64 0 0 0-64 64v256a64 64 0 0 0 64 64h256a64 64 0 0 0 64.064-64v-256a64 64 0 0 0-64-64z m-192 196.224c-17.856 0-32 14.08-32 32s14.144 32 32 32h128c17.92 0 32-14.08 32-32s-14.08-32-32-32h-128z m418.496 248.768h-256a64 64 0 0 0-64 64v256a64 64 0 0 0 64 64h256a64 64 0 0 0 64-64v-256a64 64 0 0 0-64-64z m-704 0h256a64 64 0 0 1 64 64v256a64 64 0 0 1-64 64h-256a64 64 0 0 1-64-64v-256a64 64 0 0 1 64-64z m512 199.232c-17.92 0-32 14.08-32 32s14.08 32 32 32h128c17.92 0 32-14.08 32-32s-14.08-32-32-32h-128zM192 768c0-17.92 14.08-32 32-32h128c17.92 0 32 14.08 32 32s-14.08 32-32 32h-128c-17.92 0-32-14.08-32-32z" p-id="29482" fill="#d81e06"></path></svg>