<?xml version="1.0" standalone="no"?><!DOCTYPE svg PUBLIC "-//W3C//DTD SVG 1.1//EN" "http://www.w3.org/Graphics/SVG/1.1/DTD/svg11.dtd"><svg t="1769137199550" class="icon" viewBox="0 0 1024 1024" version="1.1" xmlns="http://www.w3.org/2000/svg" p-id="32010" width="16" height="16" xmlns:xlink="http://www.w3.org/1999/xlink"><path d="M512 1024A512 512 0 1 1 512 0a512 512 0 0 1 0 1024z m310.4-550.464c0-102.272-42.88-185.536-146.56-185.536-69.056 0-121.536 39.232-157.44 117.632C482.368 327.232 432.96 288 370.24 288 276.096 288 214.4 371.2 214.4 473.536c0 3.456 0.32 6.528 0.64 8.96l-0.128 2.56a159.04 159.04 0 0 0 13.76 61.376c54.016 130.688 261.76 281.024 270.656 287.936a30.208 30.208 0 0 0 37.312-0.192c7.616-5.952 184.896-134.72 255.232-256.512 2.624-4.096 4.672-8.128 6.4-11.52l1.664-3.264a198.528 198.528 0 0 0 11.264-25.216c7.232-19.328 10.88-36.48 10.88-52.544 0-1.28-0.064-2.368-0.192-3.2 0.256-2.176 0.512-4.992 0.512-8.384z" fill="#E82661" p-id="32011"></path></svg>