<?xml version="1.0" standalone="no"?><!DOCTYPE svg PUBLIC "-//W3C//DTD SVG 1.1//EN" "http://www.w3.org/Graphics/SVG/1.1/DTD/svg11.dtd"><svg t="1769136362434" class="icon" viewBox="0 0 1024 1024" version="1.1" xmlns="http://www.w3.org/2000/svg" p-id="15213" width="16" height="16" xmlns:xlink="http://www.w3.org/1999/xlink"><path d="M938.666667 294.954667a35.456 35.456 0 0 0-18.005334-31.104l-392.661333-217.045334a32.981333 32.981333 0 0 0-32 0L103.338667 263.850667a35.456 35.456 0 0 0-18.005334 31.146666v434.048c0 13.013333 6.912 24.96 18.005334 31.146667l392.661333 217.002667c9.984 5.546667 22.016 5.546667 32 0l392.661333-217.045334a35.456 35.456 0 0 0 18.005334-31.146666V294.997333z m-106.325334 0L512 472.021333l-320.341333-177.066666L512 117.888l320.341333 177.066667z m38.272 58.794666v354.133334l-321.28 177.578666v-354.133333l321.28-177.578667z m-389.376 535.338667l-327.850666-181.205333v-354.133334l327.850666 181.205334v354.133333z m162.816-146.218667a33.450667 33.450667 0 0 0 46.037334 14.506667l84.352-46.634667a35.925333 35.925333 0 0 0 13.994666-47.701333 33.450667 33.450667 0 0 0-46.037333-14.506667l-84.352 46.634667a35.925333 35.925333 0 0 0-13.994667 47.701333z" p-id="15214" fill="#1296db"></path></svg>