<svg width="20" height="20" viewBox="0 0 20 20" fill="none" xmlns="http://www.w3.org/2000/svg">
<g id="&#228;&#187;&#163;&#233;&#135;&#145;&#229;&#136;&#184; 1">
<path id="Vector" d="M18 15.4444V17H2V11.6431L2.60727 11.5342C2.94591 11.4724 3.25319 11.2845 3.47473 11.0037C3.69628 10.7229 3.8178 10.3674 3.8178 10C3.8178 9.63262 3.69628 9.27708 3.47473 8.9963C3.25319 8.71553 2.94591 8.52762 2.60727 8.46583L2 8.35694V3H18V13.8889H16.5455V4.55556H8.18182V15.4444H18ZM6.72727 4.55556H3.45455V7.11483C3.99177 7.34754 4.4518 7.74647 4.77572 8.26052C5.09963 8.77456 5.27267 9.38032 5.27267 10.0002C5.27267 10.6201 5.09963 11.2258 4.77572 11.7399C4.4518 12.2539 3.99177 12.6528 3.45455 12.8856V15.4444H6.72727V4.55556Z" fill="#333333"/>
</g>
</svg>
