<svg 
  viewBox="0 0 1024 1024" 
  width="16" 
  height="16"
  class="icon-arrow"
  xmlns="http://www.w3.org/2000/svg"
>
  <path d="M233 435.5c6.75 0 13.5 2.25 20.25 9L512 703.25 770.75 444.5c11.25-11.25 29.25-11.25 40.5 0s11.25 29.25 0 40.5L512 782 212.75 482.75c-11.25-11.25-11.25-29.25 0-40.5 4.5-4.5 13.5-6.75 20.25-6.75z" fill="currentColor" />
  <path d="M512 71c15.75 0 27 13.5 27 29.25v603c0 15.75-13.5 29.25-27 29.25-15.75 0-27-13.5-27-29.25V100.25C482.75 84.5 496.25 71 512 71zM928.25 953h-832.5c-15.75 0-29.25-13.5-29.25-29.25 0-15.75 13.5-29.25 29.25-29.25h832.5c15.75 0 29.25 13.5 29.25 29.25 0 18-13.5 29.25-29.25 29.25z" fill="currentColor" />
</svg>